<mxfile host="app.diagrams.net" modified="2023-07-07T17:53:06.291Z" agent="Mozilla/5.0 (Macintosh; Intel Mac OS X 10_15_7) AppleWebKit/537.36 (KHTML, like Gecko) Chrome/114.0.0.0 Safari/537.36" etag="as6omtDKF-1dEum7XQc6" version="21.6.1" type="device">
  <diagram name="Página-1" id="RbE1fFGUUZFhYVq1PgTr">
    <mxGraphModel dx="1100" dy="516" grid="1" gridSize="10" guides="1" tooltips="1" connect="1" arrows="1" fold="1" page="1" pageScale="1" pageWidth="1169" pageHeight="827" math="0" shadow="0">
      <root>
        <mxCell id="0" />
        <mxCell id="1" parent="0" />
        <mxCell id="Gu8bCL1LvPXQ9eSbxBB7-23" style="edgeStyle=orthogonalEdgeStyle;rounded=0;orthogonalLoop=1;jettySize=auto;html=1;exitX=0.5;exitY=1;exitDx=0;exitDy=0;exitPerimeter=0;entryX=0.5;entryY=0.217;entryDx=0;entryDy=0;entryPerimeter=0;" parent="1" source="Gu8bCL1LvPXQ9eSbxBB7-1" target="Gu8bCL1LvPXQ9eSbxBB7-6" edge="1">
          <mxGeometry relative="1" as="geometry" />
        </mxCell>
        <mxCell id="Gu8bCL1LvPXQ9eSbxBB7-1" value="Inicio" style="strokeWidth=2;html=1;shape=mxgraph.flowchart.start_1;whiteSpace=wrap;" parent="1" vertex="1">
          <mxGeometry x="532" y="10" width="80" height="30" as="geometry" />
        </mxCell>
        <mxCell id="Gu8bCL1LvPXQ9eSbxBB7-15" style="edgeStyle=orthogonalEdgeStyle;rounded=0;orthogonalLoop=1;jettySize=auto;html=1;exitX=0.5;exitY=1;exitDx=0;exitDy=0;exitPerimeter=0;entryX=0.5;entryY=0.233;entryDx=0;entryDy=0;entryPerimeter=0;" parent="1" source="Gu8bCL1LvPXQ9eSbxBB7-2" target="Gu8bCL1LvPXQ9eSbxBB7-7" edge="1">
          <mxGeometry relative="1" as="geometry" />
        </mxCell>
        <mxCell id="Gu8bCL1LvPXQ9eSbxBB7-2" value="Inicio" style="strokeWidth=2;html=1;shape=mxgraph.flowchart.start_1;whiteSpace=wrap;" parent="1" vertex="1">
          <mxGeometry x="55.5" y="10" width="85" height="30" as="geometry" />
        </mxCell>
        <mxCell id="Gu8bCL1LvPXQ9eSbxBB7-3" value="Final" style="strokeWidth=2;html=1;shape=mxgraph.flowchart.terminator;whiteSpace=wrap;" parent="1" vertex="1">
          <mxGeometry x="38" y="450" width="80" height="30" as="geometry" />
        </mxCell>
        <mxCell id="Gu8bCL1LvPXQ9eSbxBB7-4" value="Final" style="strokeWidth=2;html=1;shape=mxgraph.flowchart.terminator;whiteSpace=wrap;" parent="1" vertex="1">
          <mxGeometry x="582" y="408" width="80" height="33" as="geometry" />
        </mxCell>
        <mxCell id="w-7sWzEUeP2SRpNRebtO-2" style="edgeStyle=orthogonalEdgeStyle;rounded=0;orthogonalLoop=1;jettySize=auto;html=1;exitX=0.5;exitY=1;exitDx=0;exitDy=0;entryX=0.5;entryY=0;entryDx=0;entryDy=0;" parent="1" source="Gu8bCL1LvPXQ9eSbxBB7-6" target="w-7sWzEUeP2SRpNRebtO-1" edge="1">
          <mxGeometry relative="1" as="geometry" />
        </mxCell>
        <mxCell id="Gu8bCL1LvPXQ9eSbxBB7-6" value="codiProducto" style="html=1;strokeWidth=2;shape=manualInput;whiteSpace=wrap;rounded=1;size=26;arcSize=11;" parent="1" vertex="1">
          <mxGeometry x="522" y="50" width="100" height="60" as="geometry" />
        </mxCell>
        <mxCell id="bQBsLXoNnKNxeVmwTAop-2" style="edgeStyle=orthogonalEdgeStyle;rounded=0;orthogonalLoop=1;jettySize=auto;html=1;exitX=0.5;exitY=1;exitDx=0;exitDy=0;entryX=0.5;entryY=0;entryDx=0;entryDy=0;" parent="1" source="Gu8bCL1LvPXQ9eSbxBB7-7" target="bQBsLXoNnKNxeVmwTAop-1" edge="1">
          <mxGeometry relative="1" as="geometry" />
        </mxCell>
        <mxCell id="Gu8bCL1LvPXQ9eSbxBB7-7" value="nombreProducto" style="html=1;strokeWidth=2;shape=manualInput;whiteSpace=wrap;rounded=1;size=26;arcSize=11;" parent="1" vertex="1">
          <mxGeometry x="48" y="46" width="100" height="60" as="geometry" />
        </mxCell>
        <mxCell id="Gu8bCL1LvPXQ9eSbxBB7-13" style="edgeStyle=orthogonalEdgeStyle;rounded=0;orthogonalLoop=1;jettySize=auto;html=1;entryX=0.6;entryY=0;entryDx=0;entryDy=0;entryPerimeter=0;" parent="1" source="Gu8bCL1LvPXQ9eSbxBB7-8" target="Gu8bCL1LvPXQ9eSbxBB7-12" edge="1">
          <mxGeometry relative="1" as="geometry" />
        </mxCell>
        <mxCell id="Gu8bCL1LvPXQ9eSbxBB7-19" style="edgeStyle=orthogonalEdgeStyle;rounded=0;orthogonalLoop=1;jettySize=auto;html=1;exitX=1;exitY=0.5;exitDx=0;exitDy=0;exitPerimeter=0;entryX=0.5;entryY=0;entryDx=0;entryDy=0;entryPerimeter=0;" parent="1" source="Gu8bCL1LvPXQ9eSbxBB7-8" target="Gu8bCL1LvPXQ9eSbxBB7-11" edge="1">
          <mxGeometry relative="1" as="geometry" />
        </mxCell>
        <mxCell id="Gu8bCL1LvPXQ9eSbxBB7-8" value="count(Lista)&amp;gt;0" style="strokeWidth=2;html=1;shape=mxgraph.flowchart.decision;whiteSpace=wrap;" parent="1" vertex="1">
          <mxGeometry x="30" y="198" width="120" height="80" as="geometry" />
        </mxCell>
        <mxCell id="Gu8bCL1LvPXQ9eSbxBB7-25" style="edgeStyle=orthogonalEdgeStyle;rounded=0;orthogonalLoop=1;jettySize=auto;html=1;exitX=0.5;exitY=1;exitDx=0;exitDy=0;exitPerimeter=0;entryX=0.5;entryY=0;entryDx=0;entryDy=0;entryPerimeter=0;" parent="1" source="Gu8bCL1LvPXQ9eSbxBB7-9" target="Gu8bCL1LvPXQ9eSbxBB7-10" edge="1">
          <mxGeometry relative="1" as="geometry" />
        </mxCell>
        <mxCell id="Gu8bCL1LvPXQ9eSbxBB7-28" style="edgeStyle=orthogonalEdgeStyle;rounded=0;orthogonalLoop=1;jettySize=auto;html=1;exitX=1;exitY=0.5;exitDx=0;exitDy=0;exitPerimeter=0;entryX=0.5;entryY=0;entryDx=0;entryDy=0;entryPerimeter=0;" parent="1" source="Gu8bCL1LvPXQ9eSbxBB7-9" target="Gu8bCL1LvPXQ9eSbxBB7-27" edge="1">
          <mxGeometry relative="1" as="geometry" />
        </mxCell>
        <mxCell id="Gu8bCL1LvPXQ9eSbxBB7-9" value="Producto existe" style="strokeWidth=2;html=1;shape=mxgraph.flowchart.decision;whiteSpace=wrap;" parent="1" vertex="1">
          <mxGeometry x="522" y="208" width="100" height="63" as="geometry" />
        </mxCell>
        <mxCell id="Gu8bCL1LvPXQ9eSbxBB7-30" style="edgeStyle=orthogonalEdgeStyle;rounded=0;orthogonalLoop=1;jettySize=auto;html=1;entryX=0.5;entryY=0;entryDx=0;entryDy=0;entryPerimeter=0;" parent="1" source="Gu8bCL1LvPXQ9eSbxBB7-10" target="Gu8bCL1LvPXQ9eSbxBB7-4" edge="1">
          <mxGeometry relative="1" as="geometry" />
        </mxCell>
        <mxCell id="Gu8bCL1LvPXQ9eSbxBB7-10" value="ficha producto" style="strokeWidth=2;html=1;shape=mxgraph.flowchart.display;whiteSpace=wrap;" parent="1" vertex="1">
          <mxGeometry x="522" y="318" width="100" height="43" as="geometry" />
        </mxCell>
        <mxCell id="Gu8bCL1LvPXQ9eSbxBB7-36" style="edgeStyle=orthogonalEdgeStyle;rounded=0;orthogonalLoop=1;jettySize=auto;html=1;entryX=1;entryY=0.5;entryDx=0;entryDy=0;entryPerimeter=0;" parent="1" source="Gu8bCL1LvPXQ9eSbxBB7-11" target="Gu8bCL1LvPXQ9eSbxBB7-3" edge="1">
          <mxGeometry relative="1" as="geometry" />
        </mxCell>
        <mxCell id="Gu8bCL1LvPXQ9eSbxBB7-11" value="Error nombre producto no existe" style="strokeWidth=2;html=1;shape=mxgraph.flowchart.display;whiteSpace=wrap;" parent="1" vertex="1">
          <mxGeometry x="170" y="330" width="120" height="50" as="geometry" />
        </mxCell>
        <mxCell id="Gu8bCL1LvPXQ9eSbxBB7-16" style="edgeStyle=orthogonalEdgeStyle;rounded=0;orthogonalLoop=1;jettySize=auto;html=1;exitX=0.5;exitY=1;exitDx=0;exitDy=0;exitPerimeter=0;entryX=0.5;entryY=0;entryDx=0;entryDy=0;entryPerimeter=0;" parent="1" source="Gu8bCL1LvPXQ9eSbxBB7-12" target="Gu8bCL1LvPXQ9eSbxBB7-3" edge="1">
          <mxGeometry relative="1" as="geometry" />
        </mxCell>
        <mxCell id="Gu8bCL1LvPXQ9eSbxBB7-12" value="listado productos" style="strokeWidth=2;html=1;shape=mxgraph.flowchart.display;whiteSpace=wrap;" parent="1" vertex="1">
          <mxGeometry x="22" y="330" width="112" height="40" as="geometry" />
        </mxCell>
        <mxCell id="Gu8bCL1LvPXQ9eSbxBB7-17" value="Sí" style="text;html=1;align=center;verticalAlign=middle;resizable=0;points=[];autosize=1;strokeColor=none;fillColor=none;" parent="1" vertex="1">
          <mxGeometry x="63" y="278" width="30" height="30" as="geometry" />
        </mxCell>
        <mxCell id="Gu8bCL1LvPXQ9eSbxBB7-20" value="No" style="text;html=1;align=center;verticalAlign=middle;resizable=0;points=[];autosize=1;strokeColor=none;fillColor=none;" parent="1" vertex="1">
          <mxGeometry x="150" y="216" width="40" height="30" as="geometry" />
        </mxCell>
        <mxCell id="Gu8bCL1LvPXQ9eSbxBB7-31" style="edgeStyle=orthogonalEdgeStyle;rounded=0;orthogonalLoop=1;jettySize=auto;html=1;entryX=0.725;entryY=-0.067;entryDx=0;entryDy=0;entryPerimeter=0;" parent="1" source="Gu8bCL1LvPXQ9eSbxBB7-27" target="Gu8bCL1LvPXQ9eSbxBB7-4" edge="1">
          <mxGeometry relative="1" as="geometry" />
        </mxCell>
        <mxCell id="Gu8bCL1LvPXQ9eSbxBB7-27" value="Error código producto no existe" style="strokeWidth=2;html=1;shape=mxgraph.flowchart.display;whiteSpace=wrap;" parent="1" vertex="1">
          <mxGeometry x="662" y="310.5" width="100" height="58" as="geometry" />
        </mxCell>
        <mxCell id="Gu8bCL1LvPXQ9eSbxBB7-32" value="Sí" style="text;html=1;align=center;verticalAlign=middle;resizable=0;points=[];autosize=1;strokeColor=none;fillColor=none;" parent="1" vertex="1">
          <mxGeometry x="540" y="271" width="30" height="30" as="geometry" />
        </mxCell>
        <mxCell id="Gu8bCL1LvPXQ9eSbxBB7-33" value="No" style="text;html=1;align=center;verticalAlign=middle;resizable=0;points=[];autosize=1;strokeColor=none;fillColor=none;" parent="1" vertex="1">
          <mxGeometry x="630" y="216" width="40" height="30" as="geometry" />
        </mxCell>
        <mxCell id="Gu8bCL1LvPXQ9eSbxBB7-34" value="ALGORITMO : Obtener productos&lt;br&gt;VAR : nombreProducto text&lt;br&gt;&lt;span style=&quot;white-space: pre;&quot;&gt;&#x9;&lt;/span&gt;listaProductos List&lt;br&gt;INICIO&lt;br&gt;&lt;span style=&quot;white-space: pre;&quot;&gt;&#x9;&lt;/span&gt;Leer nombreProducto&lt;br&gt;&lt;span style=&quot;white-space: pre;&quot;&gt;&#x9;&lt;/span&gt;Obtener productos por nombre&lt;br&gt;&lt;span style=&quot;white-space: pre;&quot;&gt;&#x9;&lt;/span&gt;SI listaProducto &amp;gt; 0&lt;br&gt;&lt;span style=&quot;&quot;&gt;&lt;span style=&quot;&quot;&gt;&amp;nbsp;&amp;nbsp;&amp;nbsp;&amp;nbsp;&lt;/span&gt;&lt;span style=&quot;&quot;&gt;&lt;span style=&quot;&quot;&gt;&amp;nbsp;&amp;nbsp;&amp;nbsp;&amp;nbsp;&lt;span style=&quot;white-space: pre;&quot;&gt;&#x9;&lt;/span&gt;&lt;/span&gt;&lt;/span&gt;&lt;/span&gt;Mostrar listado productos&lt;br&gt;&lt;span style=&quot;white-space: pre;&quot;&gt;&#x9;&lt;/span&gt;SI_NO &lt;br&gt;&lt;span style=&quot;&quot;&gt;&lt;span style=&quot;&quot;&gt;&amp;nbsp;&amp;nbsp;&amp;nbsp;&amp;nbsp;&lt;/span&gt;&lt;span style=&quot;&quot;&gt;&lt;span style=&quot;&quot;&gt;&amp;nbsp;&amp;nbsp;&amp;nbsp;&amp;nbsp;&lt;span style=&quot;white-space: pre;&quot;&gt;&#x9;&lt;/span&gt;Mostrar Error &quot;producto no existe&quot;&lt;/span&gt;&lt;/span&gt;&lt;/span&gt;&lt;br&gt;&lt;span style=&quot;white-space: pre;&quot;&gt;&#x9;&lt;/span&gt;Fi_SI&lt;br&gt;FINAL" style="text;html=1;strokeColor=none;fillColor=none;align=left;verticalAlign=middle;whiteSpace=wrap;rounded=0;" parent="1" vertex="1">
          <mxGeometry x="212" y="28" width="310" height="170" as="geometry" />
        </mxCell>
        <mxCell id="Gu8bCL1LvPXQ9eSbxBB7-35" value="ALGORITMO : Ver ficha producto&lt;br&gt;VAR : codiProducto int&lt;br&gt;&lt;br&gt;INICIO&lt;br&gt;&lt;span style=&quot;white-space: pre;&quot;&gt;&#x9;&lt;/span&gt;Leer codiProducto&lt;br&gt;&lt;span style=&quot;white-space: pre;&quot;&gt;&#x9;&lt;/span&gt;Obtener producto por código&lt;br&gt;&lt;span style=&quot;white-space: pre;&quot;&gt;&#x9;&lt;/span&gt;SI Producto existe&lt;br&gt;&lt;span style=&quot;&quot;&gt;&lt;span style=&quot;&quot;&gt;&amp;nbsp;&amp;nbsp;&amp;nbsp;&amp;nbsp;&lt;/span&gt;&lt;span style=&quot;&quot;&gt;&lt;span style=&quot;&quot;&gt;&amp;nbsp;&amp;nbsp;&amp;nbsp;&amp;nbsp;&lt;span style=&quot;white-space: pre;&quot;&gt;&#x9;&lt;/span&gt;&lt;/span&gt;&lt;/span&gt;&lt;/span&gt;Mostrar ficha producto&lt;br&gt;&lt;span style=&quot;white-space: pre;&quot;&gt;&#x9;&lt;/span&gt;SI_NO &lt;br&gt;&lt;span style=&quot;&quot;&gt;&lt;span style=&quot;&quot;&gt;&amp;nbsp;&amp;nbsp;&amp;nbsp;&amp;nbsp;&lt;/span&gt;&lt;span style=&quot;&quot;&gt;&lt;span style=&quot;&quot;&gt;&amp;nbsp;&amp;nbsp;&amp;nbsp;&amp;nbsp;&lt;span style=&quot;white-space: pre;&quot;&gt;&#x9;&lt;/span&gt;Mostrar Error &quot;producto no existe&quot;&lt;/span&gt;&lt;/span&gt;&lt;/span&gt;&lt;br&gt;&lt;span style=&quot;white-space: pre;&quot;&gt;&#x9;&lt;/span&gt;Fi_SI&lt;br&gt;FINAL" style="text;html=1;strokeColor=none;fillColor=none;align=left;verticalAlign=middle;whiteSpace=wrap;rounded=0;" parent="1" vertex="1">
          <mxGeometry x="670" y="28" width="310" height="170" as="geometry" />
        </mxCell>
        <mxCell id="bQBsLXoNnKNxeVmwTAop-3" style="edgeStyle=orthogonalEdgeStyle;rounded=0;orthogonalLoop=1;jettySize=auto;html=1;exitX=0.5;exitY=1;exitDx=0;exitDy=0;entryX=0.5;entryY=0;entryDx=0;entryDy=0;entryPerimeter=0;" parent="1" source="bQBsLXoNnKNxeVmwTAop-1" target="Gu8bCL1LvPXQ9eSbxBB7-8" edge="1">
          <mxGeometry relative="1" as="geometry" />
        </mxCell>
        <mxCell id="bQBsLXoNnKNxeVmwTAop-1" value="Lista = ObtenerProductos(nombreProducto)" style="rounded=1;whiteSpace=wrap;html=1;" parent="1" vertex="1">
          <mxGeometry x="0.5" y="120" width="205" height="60" as="geometry" />
        </mxCell>
        <mxCell id="w-7sWzEUeP2SRpNRebtO-3" style="edgeStyle=orthogonalEdgeStyle;rounded=0;orthogonalLoop=1;jettySize=auto;html=1;exitX=0.5;exitY=1;exitDx=0;exitDy=0;entryX=0.5;entryY=0;entryDx=0;entryDy=0;entryPerimeter=0;" parent="1" source="w-7sWzEUeP2SRpNRebtO-1" target="Gu8bCL1LvPXQ9eSbxBB7-9" edge="1">
          <mxGeometry relative="1" as="geometry" />
        </mxCell>
        <mxCell id="w-7sWzEUeP2SRpNRebtO-1" value="Producto = ObtenerProducto(código)" style="rounded=1;whiteSpace=wrap;html=1;" parent="1" vertex="1">
          <mxGeometry x="502" y="128" width="140" height="60" as="geometry" />
        </mxCell>
      </root>
    </mxGraphModel>
  </diagram>
</mxfile>
